# xmcd
#
# Track frame offsets:
#  150
#  24607
#  45976
#  67916
#  83849
#  106382
#  126521
#  148020
#  181068
#  205450
#  223994
#  250470
#  271216
#  296187
#  318176
#
# Disc length: 4392 seconds
#
# Revision: 0
# Processed by: cddbd v1.5.1PL2 Copyright (c) Steve Scherf et al.
# Submitted via: Collectorz.com_Music_Collector 6.9
#
DISCID=e811260f
DTITLE=Zucchero - Greatests hits
DYEAR=1900
DGENRE=
TTITLE0=Menta e rosmarino
TTITLE1=
TTITLE2=
TTITLE3=
TTITLE4=
TTITLE5=
TTITLE6=
TTITLE7=
TTITLE8=
TTITLE9=
TTITLE10=
TTITLE11=
TTITLE12=
TTITLE13=
TTITLE14=
EXTD=
EXTT0=
EXTT1=
EXTT2=
EXTT3=
EXTT4=
EXTT5=
EXTT6=
EXTT7=
EXTT8=
EXTT9=
EXTT10=
EXTT11=
EXTT12=
EXTT13=
EXTT14=
PLAYORDER=
